<svg xmlns="http://www.w3.org/2000/svg" viewBox="0 0 100 100" width="200" height="200">
  <defs>
    <radialGradient id="grad_facil_70782" cx="35%" cy="30%" r="75%">
      <stop offset="0%" stop-color="#bdf4c9" stop-opacity="0.55"/>
      <stop offset="35%" stop-color="#3ecf5e"/>
      <stop offset="100%" stop-color="#1f8a3d"/>
    </radialGradient>
  </defs>
  <circle cx="50" cy="53" r="43" fill="#1f8a3d" opacity="0.55"/>
  <circle cx="50" cy="50" r="43" fill="url(#grad_facil_70782)" stroke="#1f8a3d" stroke-width="3"/>
  <circle cx="50" cy="50" r="43" fill="none" stroke="#bdf4c9" stroke-width="1.5" opacity="0.5"/>
  <ellipse cx="38" cy="28" rx="20" ry="10" fill="#ffffff" opacity="0.14"/>
  <g fill="#f4fbf8" stroke="none">
    <path d="M28,44 h44 a14,14 0 0 1 14,14 v6 a10,10 0 0 1 -18,7 L60,60 H40 l-8,11 a10,10 0 0 1 -18,-7 v-6 a14,14 0 0 1 14,-14 Z"/>
<rect x="35" y="51" width="10" height="3" rx="1"/>
<rect x="38.5" y="47.5" width="3" height="10" rx="1"/>
<circle cx="62" cy="50" r="3"/>
<circle cx="70" cy="56" r="3"/>
  </g>
</svg>