<svg xmlns="http://www.w3.org/2000/svg" viewBox="0 0 800 1400" width="800" height="1400">
  <defs>
    <linearGradient id="bg_grad" x1="0" y1="0" x2="0" y2="1">
      <stop offset="0%" stop-color="#241a4a"/>
      <stop offset="100%" stop-color="#140f2e"/>
    </linearGradient>
  </defs>
  <rect x="0" y="0" width="800" height="1400" fill="url(#bg_grad)"/>
  <circle cx="259.1" cy="211.2" r="1.35" fill="#ffffff" opacity="0.35"/>
<circle cx="428.7" cy="512.0" r="0.58" fill="#ffffff" opacity="0.66"/>
<circle cx="30.0" cy="607.1" r="0.59" fill="#ffffff" opacity="0.36"/>
<circle cx="339.6" cy="1157.6" r="0.66" fill="#ffffff" opacity="0.46"/>
<circle cx="501.9" cy="1326.8" r="1.25" fill="#ffffff" opacity="0.58"/>
<circle cx="781.0" cy="65.2" r="1.62" fill="#ffffff" opacity="0.50"/>
<circle cx="115.4" cy="164.9" r="0.90" fill="#ffffff" opacity="0.87"/>
<circle cx="144.6" cy="814.2" r="1.33" fill="#ffffff" opacity="0.56"/>
<circle cx="438.2" cy="87.9" r="0.58" fill="#ffffff" opacity="0.44"/>
<circle cx="544.3" cy="598.6" r="0.91" fill="#ffffff" opacity="0.71"/>
<circle cx="362.5" cy="419.7" r="1.53" fill="#ffffff" opacity="0.79"/>
<circle cx="195.3" cy="804.2" r="1.18" fill="#ffffff" opacity="0.91"/>
<circle cx="583.6" cy="403.1" r="1.77" fill="#ffffff" opacity="0.38"/>
<circle cx="334.5" cy="1060.0" r="0.70" fill="#ffffff" opacity="0.64"/>
<circle cx="31.4" cy="935.5" r="1.49" fill="#ffffff" opacity="0.70"/>
<circle cx="700.4" cy="439.2" r="1.40" fill="#ffffff" opacity="0.72"/>
<circle cx="463.9" cy="638.7" r="1.59" fill="#ffffff" opacity="0.96"/>
<circle cx="379.3" cy="929.8" r="0.58" fill="#ffffff" opacity="0.79"/>
<circle cx="517.7" cy="1390.3" r="1.57" fill="#ffffff" opacity="0.50"/>
<circle cx="308.6" cy="936.1" r="0.53" fill="#ffffff" opacity="0.62"/>
<circle cx="134.4" cy="163.9" r="0.58" fill="#ffffff" opacity="0.84"/>
<circle cx="103.5" cy="346.7" r="1.01" fill="#ffffff" opacity="0.91"/>
<circle cx="64.5" cy="628.9" r="1.21" fill="#ffffff" opacity="0.92"/>
<circle cx="655.4" cy="1209.6" r="0.86" fill="#ffffff" opacity="0.59"/>
<circle cx="287.0" cy="1237.9" r="1.75" fill="#ffffff" opacity="0.41"/>
<circle cx="141.0" cy="324.7" r="0.80" fill="#ffffff" opacity="0.64"/>
<circle cx="471.3" cy="367.8" r="0.51" fill="#ffffff" opacity="0.59"/>
<circle cx="295.4" cy="792.9" r="1.74" fill="#ffffff" opacity="0.78"/>
<circle cx="412.4" cy="864.6" r="1.38" fill="#ffffff" opacity="0.34"/>
<circle cx="719.6" cy="1092.0" r="1.64" fill="#ffffff" opacity="0.86"/>
<circle cx="313.9" cy="558.6" r="0.63" fill="#ffffff" opacity="0.74"/>
<circle cx="49.8" cy="94.3" r="0.77" fill="#ffffff" opacity="0.41"/>
<circle cx="272.0" cy="73.6" r="0.50" fill="#ffffff" opacity="0.41"/>
<circle cx="81.2" cy="509.1" r="0.53" fill="#ffffff" opacity="0.91"/>
<circle cx="491.3" cy="208.0" r="0.83" fill="#ffffff" opacity="0.54"/>
<circle cx="291.3" cy="172.0" r="1.60" fill="#ffffff" opacity="1.00"/>
<circle cx="372.8" cy="677.4" r="0.61" fill="#ffffff" opacity="0.37"/>
<circle cx="274.1" cy="370.7" r="1.58" fill="#ffffff" opacity="0.41"/>
<circle cx="18.5" cy="1331.4" r="1.19" fill="#ffffff" opacity="0.40"/>
<circle cx="434.5" cy="37.9" r="1.19" fill="#ffffff" opacity="0.98"/>
<circle cx="690.7" cy="974.7" r="0.84" fill="#ffffff" opacity="0.56"/>
<circle cx="133.6" cy="1080.7" r="1.19" fill="#ffffff" opacity="0.85"/>
<circle cx="263.7" cy="312.3" r="1.55" fill="#ffffff" opacity="0.99"/>
<circle cx="682.1" cy="1128.5" r="1.56" fill="#ffffff" opacity="0.82"/>
<circle cx="181.4" cy="724.7" r="0.96" fill="#ffffff" opacity="0.32"/>
<circle cx="22.3" cy="391.2" r="0.84" fill="#ffffff" opacity="0.78"/>
<circle cx="765.2" cy="626.1" r="1.72" fill="#ffffff" opacity="0.99"/>
<circle cx="764.0" cy="510.5" r="0.79" fill="#ffffff" opacity="0.46"/>
<circle cx="157.4" cy="286.1" r="1.31" fill="#ffffff" opacity="0.93"/>
<circle cx="672.3" cy="671.3" r="1.35" fill="#ffffff" opacity="0.86"/>
<circle cx="67.8" cy="924.8" r="1.68" fill="#ffffff" opacity="0.85"/>
<circle cx="600.1" cy="669.2" r="0.73" fill="#ffffff" opacity="0.85"/>
<circle cx="266.0" cy="1121.2" r="1.76" fill="#ffffff" opacity="0.58"/>
<circle cx="321.1" cy="1325.5" r="1.44" fill="#ffffff" opacity="0.42"/>
<circle cx="101.6" cy="211.6" r="1.68" fill="#ffffff" opacity="0.86"/>
<circle cx="116.9" cy="1157.1" r="1.77" fill="#ffffff" opacity="0.76"/>
<circle cx="280.3" cy="768.1" r="0.67" fill="#ffffff" opacity="0.31"/>
<circle cx="776.7" cy="909.5" r="1.18" fill="#ffffff" opacity="0.95"/>
<circle cx="347.0" cy="1220.4" r="1.57" fill="#ffffff" opacity="0.45"/>
<circle cx="201.5" cy="410.2" r="0.81" fill="#ffffff" opacity="0.71"/>
<circle cx="207.5" cy="586.6" r="0.67" fill="#ffffff" opacity="0.94"/>
<circle cx="283.0" cy="641.4" r="1.26" fill="#ffffff" opacity="0.93"/>
<circle cx="336.5" cy="1284.8" r="1.15" fill="#ffffff" opacity="0.67"/>
<circle cx="418.8" cy="26.2" r="1.07" fill="#ffffff" opacity="0.43"/>
<circle cx="3.1" cy="1118.8" r="0.72" fill="#ffffff" opacity="0.63"/>
<circle cx="580.2" cy="779.1" r="0.92" fill="#ffffff" opacity="0.66"/>
<circle cx="444.4" cy="1098.0" r="0.64" fill="#ffffff" opacity="0.69"/>
<circle cx="198.8" cy="387.7" r="1.50" fill="#ffffff" opacity="0.66"/>
<circle cx="449.4" cy="1064.0" r="1.69" fill="#ffffff" opacity="0.61"/>
<circle cx="490.0" cy="707.8" r="1.17" fill="#ffffff" opacity="0.78"/>
<circle cx="361.9" cy="746.6" r="1.12" fill="#ffffff" opacity="0.96"/>
<circle cx="559.4" cy="1227.1" r="1.72" fill="#ffffff" opacity="0.48"/>
<circle cx="447.6" cy="1320.6" r="1.59" fill="#ffffff" opacity="0.40"/>
<circle cx="97.3" cy="619.0" r="0.59" fill="#ffffff" opacity="0.47"/>
<circle cx="58.5" cy="937.3" r="1.52" fill="#ffffff" opacity="0.93"/>
<circle cx="123.6" cy="1002.6" r="1.36" fill="#ffffff" opacity="0.40"/>
<circle cx="706.3" cy="1354.6" r="0.79" fill="#ffffff" opacity="0.97"/>
<circle cx="318.6" cy="682.2" r="1.79" fill="#ffffff" opacity="0.88"/>
<circle cx="129.2" cy="604.1" r="1.17" fill="#ffffff" opacity="0.54"/>
<circle cx="156.6" cy="445.9" r="1.44" fill="#ffffff" opacity="0.31"/>
<circle cx="443.2" cy="616.6" r="0.52" fill="#ffffff" opacity="0.53"/>
<circle cx="499.1" cy="717.2" r="0.58" fill="#ffffff" opacity="0.99"/>
<circle cx="630.7" cy="1360.4" r="0.64" fill="#ffffff" opacity="0.49"/>
<circle cx="31.7" cy="1090.6" r="0.85" fill="#ffffff" opacity="0.39"/>
<circle cx="337.8" cy="1276.0" r="1.56" fill="#ffffff" opacity="0.48"/>
<circle cx="119.5" cy="1286.8" r="1.24" fill="#ffffff" opacity="0.79"/>
<circle cx="71.6" cy="80.5" r="1.39" fill="#ffffff" opacity="0.60"/>
<circle cx="57.9" cy="1313.7" r="1.32" fill="#ffffff" opacity="0.86"/>
<circle cx="67.0" cy="1198.7" r="0.59" fill="#ffffff" opacity="0.90"/>
<circle cx="363.0" cy="474.8" r="1.22" fill="#ffffff" opacity="0.95"/>
<circle cx="214.3" cy="180.9" r="1.18" fill="#ffffff" opacity="0.47"/>
<circle cx="87.6" cy="226.0" r="0.57" fill="#ffffff" opacity="0.44"/>
<circle cx="249.6" cy="427.0" r="1.49" fill="#ffffff" opacity="0.50"/>
<circle cx="400.1" cy="249.1" r="0.95" fill="#ffffff" opacity="0.31"/>
<circle cx="200.4" cy="21.5" r="1.45" fill="#ffffff" opacity="0.69"/>
<circle cx="151.6" cy="664.7" r="1.72" fill="#ffffff" opacity="0.37"/>
<circle cx="655.1" cy="605.0" r="1.14" fill="#ffffff" opacity="0.88"/>
<circle cx="314.5" cy="709.4" r="1.39" fill="#ffffff" opacity="0.99"/>
<circle cx="274.2" cy="1165.2" r="1.42" fill="#ffffff" opacity="0.75"/>
<circle cx="323.8" cy="486.6" r="0.57" fill="#ffffff" opacity="0.39"/>
<circle cx="56.6" cy="1037.2" r="0.83" fill="#ffffff" opacity="0.41"/>
<circle cx="67.6" cy="1177.8" r="1.63" fill="#ffffff" opacity="0.77"/>
<circle cx="225.5" cy="339.1" r="0.88" fill="#ffffff" opacity="0.62"/>
<circle cx="126.0" cy="624.2" r="0.84" fill="#ffffff" opacity="0.97"/>
<circle cx="778.1" cy="765.9" r="0.82" fill="#ffffff" opacity="0.98"/>
<circle cx="247.6" cy="499.2" r="0.50" fill="#ffffff" opacity="0.57"/>
<circle cx="379.7" cy="703.9" r="0.76" fill="#ffffff" opacity="0.65"/>
<circle cx="4.0" cy="369.8" r="0.62" fill="#ffffff" opacity="0.58"/>
<circle cx="33.3" cy="31.5" r="0.90" fill="#ffffff" opacity="0.46"/>
<circle cx="468.5" cy="740.9" r="1.48" fill="#ffffff" opacity="0.76"/>
<circle cx="572.8" cy="1230.7" r="1.01" fill="#ffffff" opacity="0.53"/>
<circle cx="787.8" cy="209.2" r="1.44" fill="#ffffff" opacity="0.75"/>
<circle cx="35.0" cy="1169.4" r="1.66" fill="#ffffff" opacity="0.74"/>
<circle cx="587.1" cy="1137.1" r="0.68" fill="#ffffff" opacity="0.67"/>
<circle cx="403.5" cy="1168.9" r="1.55" fill="#ffffff" opacity="0.88"/>
<circle cx="467.2" cy="1250.0" r="1.39" fill="#ffffff" opacity="0.79"/>
<circle cx="184.0" cy="43.6" r="0.67" fill="#ffffff" opacity="0.55"/>
<circle cx="83.9" cy="1170.1" r="1.23" fill="#ffffff" opacity="0.74"/>
<circle cx="501.0" cy="952.9" r="1.14" fill="#ffffff" opacity="0.30"/>
<circle cx="638.2" cy="1047.6" r="1.15" fill="#ffffff" opacity="0.67"/>
<circle cx="527.4" cy="92.5" r="1.46" fill="#ffffff" opacity="0.48"/>
<circle cx="59.6" cy="371.8" r="1.45" fill="#ffffff" opacity="0.44"/>
<circle cx="591.9" cy="1366.0" r="1.14" fill="#ffffff" opacity="0.57"/>
<circle cx="383.2" cy="957.2" r="1.50" fill="#ffffff" opacity="0.73"/>
<circle cx="514.2" cy="108.5" r="0.69" fill="#ffffff" opacity="0.48"/>
<circle cx="594.6" cy="426.2" r="1.24" fill="#ffffff" opacity="0.31"/>
<circle cx="48.5" cy="376.3" r="1.37" fill="#ffffff" opacity="0.78"/>
<circle cx="540.6" cy="407.2" r="1.17" fill="#ffffff" opacity="0.63"/>
<circle cx="373.1" cy="165.9" r="1.66" fill="#ffffff" opacity="0.44"/>
<circle cx="782.5" cy="1310.8" r="0.52" fill="#ffffff" opacity="0.62"/>
<circle cx="655.9" cy="1355.4" r="1.08" fill="#ffffff" opacity="0.49"/>
<circle cx="167.9" cy="1323.8" r="0.77" fill="#ffffff" opacity="0.71"/>
<circle cx="113.4" cy="733.7" r="1.74" fill="#ffffff" opacity="0.39"/>
<circle cx="656.2" cy="712.2" r="1.65" fill="#ffffff" opacity="0.79"/>
<circle cx="185.1" cy="1256.8" r="1.13" fill="#ffffff" opacity="0.32"/>
<circle cx="2.9" cy="688.4" r="1.09" fill="#ffffff" opacity="0.51"/>
<circle cx="112.6" cy="481.5" r="0.91" fill="#ffffff" opacity="0.89"/>
<circle cx="1.4" cy="1051.0" r="1.59" fill="#ffffff" opacity="0.38"/>
<circle cx="741.1" cy="998.2" r="1.67" fill="#ffffff" opacity="0.50"/>
<circle cx="297.8" cy="550.1" r="1.80" fill="#ffffff" opacity="0.71"/>
<circle cx="288.6" cy="599.3" r="2.48" fill="#ffffff" opacity="0.9"><animate attributeName="opacity" values="0.9;0.3;0.9" dur="2.1s" repeatCount="indefinite"/></circle>
<circle cx="81.4" cy="1168.5" r="2.49" fill="#ffffff" opacity="0.9"><animate attributeName="opacity" values="0.9;0.3;0.9" dur="3.9s" repeatCount="indefinite"/></circle>
<circle cx="199.5" cy="372.0" r="2.71" fill="#ffffff" opacity="0.9"><animate attributeName="opacity" values="0.9;0.3;0.9" dur="2.4s" repeatCount="indefinite"/></circle>
<circle cx="298.7" cy="1338.6" r="3.08" fill="#ffffff" opacity="0.9"><animate attributeName="opacity" values="0.9;0.3;0.9" dur="3.6s" repeatCount="indefinite"/></circle>
<circle cx="504.7" cy="1278.8" r="3.14" fill="#ffffff" opacity="0.9"><animate attributeName="opacity" values="0.9;0.3;0.9" dur="3.1s" repeatCount="indefinite"/></circle>
<circle cx="575.7" cy="69.3" r="2.93" fill="#ffffff" opacity="0.9"><animate attributeName="opacity" values="0.9;0.3;0.9" dur="2.9s" repeatCount="indefinite"/></circle>
<circle cx="602.1" cy="902.3" r="2.49" fill="#ffffff" opacity="0.9"><animate attributeName="opacity" values="0.9;0.3;0.9" dur="2.1s" repeatCount="indefinite"/></circle>
<circle cx="741.4" cy="178.2" r="2.67" fill="#ffffff" opacity="0.9"><animate attributeName="opacity" values="0.9;0.3;0.9" dur="2.7s" repeatCount="indefinite"/></circle>
<circle cx="238.2" cy="1034.6" r="3.18" fill="#ffffff" opacity="0.9"><animate attributeName="opacity" values="0.9;0.3;0.9" dur="2.5s" repeatCount="indefinite"/></circle>
<circle cx="524.8" cy="421.2" r="2.76" fill="#ffffff" opacity="0.9"><animate attributeName="opacity" values="0.9;0.3;0.9" dur="2.8s" repeatCount="indefinite"/></circle>
</svg>